<?xml version="1.0" encoding="utf-8" ?><svg xmlns="http://www.w3.org/2000/svg" xmlns:xlink="http://www.w3.org/1999/xlink" width="364" height="361" viewBox="0 0 364 361"><path d="M170.817 39.3573C174.148 39.0198 195.344 39.2508 197.45 40.4602C198.337 42.1874 200.03 49.6003 200.623 51.9736L205.851 72.7086C215.013 74.9749 221.811 77.5563 230.449 81.4494C228.71 85.2097 225.806 90.1261 223.76 93.9126C222.149 96.8932 219.538 101.951 217.801 104.549C202.367 96.7497 182.046 93.9566 165.009 96.8404C140.005 101.073 119.008 114.213 104.435 135.03C93.5736 150.831 85.7497 173.602 89.1405 192.876C97.9331 242.857 145.248 276.603 195.232 267.825C218.994 263.435 240.031 249.766 253.698 229.837C262.451 217.341 269.437 198.99 269.496 183.54C269.519 177.499 268.277 170.914 267.232 164.947C274.47 162.544 282.07 159.89 289.435 157.885C291.307 157.329 291.411 157.857 292.816 158.639C295.617 160.197 299.823 160.749 302.959 161.638C310.446 163.759 317.937 165.651 325.514 167.375C325.528 168.685 325.552 170.215 325.709 171.513C326.834 180.794 326.248 189.127 325.446 198.366C322.067 199.482 318.129 200.374 314.647 201.377C307.264 203.505 300.003 205.404 292.506 207.102C289.474 214.991 287.244 223.223 283.314 230.766C281.781 233.709 280.045 236.519 278.398 239.398C280.153 242.966 283.214 247.799 285.344 251.352C288.93 257.326 292.568 263.27 296.258 269.181C290.052 277.139 277.834 289.438 269.949 295.675C266.079 292.779 261.475 290.456 257.448 287.797C252.023 284.215 245.917 280.96 240.672 277.169C233.543 281.883 225.834 285.655 217.737 288.392C213.777 289.744 209.484 290.846 205.611 292.327C205.317 295.182 203.211 302.817 202.393 305.977C200.772 312.254 199.317 318.573 198.028 324.926C193.365 325.652 186.404 325.551 181.588 325.556C174.8 325.565 167.348 325.634 160.629 324.915C157.195 313.9 155.527 302.757 152.433 292.17C147.454 290.66 142.143 289.113 137.277 287.314C130.188 284.694 123.935 281.031 117.442 277.241C109.78 283.296 97.1587 289.511 88.3433 295.63C83.6891 292.423 64.9194 273.898 62.0374 268.945C63.7039 265.832 66.0608 262.518 67.9295 259.47C71.9373 252.934 76.2848 246.272 79.9491 239.545C74.2759 232.072 68.3793 216.351 65.7549 207.19C55.2383 205.292 43.303 201.047 32.5685 198.798C32.2686 194.525 31.749 188.808 31.8162 184.499C31.899 179.18 32.3352 172.768 32.7654 167.436C34.0934 167.065 35.4499 166.702 36.7963 166.403C46.5073 164.247 56.0834 161.112 65.8437 159.222C67.7902 147.619 74.3478 135.265 79.8566 124.996C74.3392 115.411 67.5119 104.993 61.7063 95.4353C70.945 85.6957 77.274 78.1534 87.8392 69.4059C89.0984 70.0599 90.4 70.7849 91.5926 71.5528C99.7696 76.8177 109.196 81.3091 116.757 87.3947C126.916 80.3732 141.001 76.1929 152.616 72.3978C154.744 62.4958 157.832 49.6051 160.739 39.9906C163.578 39.6411 167.861 39.5281 170.817 39.3573Z"/><path fill="#BD7743" d="M270.177 69.4659C273.776 70.4666 293.54 91.4288 296.01 95.3612C294.905 98.1341 292.57 101.736 290.974 104.392C288.421 108.676 285.83 112.937 283.199 117.174C281.776 119.44 279.347 123.053 278.468 125.443C278.833 126.158 279.419 127.092 279.868 127.76C283.972 133.864 286.372 140.483 288.873 147.4C283.991 149.211 269.36 154.283 264.497 154.798L264.032 154.399C257.272 139.962 250.792 128.516 238.497 117.927C236.061 115.829 233.61 113.896 231.072 111.92C229.838 110.959 228.084 110.184 227.227 109.102C227.245 109.011 227.344 108.538 227.388 108.451C230.828 101.7 235.024 94.2429 239.056 87.8526C239.289 87.483 242.653 86.6473 243.717 85.9908C252.128 80.7973 261.502 73.9436 270.177 69.4659Z"/><path d="M148.359 129.54C149.355 129.501 150.625 129.505 151.449 130.163C154.848 132.88 169.315 158.582 172.7 164.439C174.607 167.74 176.535 172.047 179.258 174.705C180.678 176.091 182.342 176.611 184.202 177.19C193.626 172.67 237.74 141.42 242.287 141.282C243.23 141.253 244.176 141.662 244.84 142.32C246.472 143.939 246.564 146.117 246.545 148.265C243.421 150.983 239.733 153.276 236.26 155.55C231.78 158.207 227.284 161.28 222.899 164.123C215.592 168.794 208.336 173.544 201.131 178.371C198.119 180.388 192.44 183.508 190.037 185.581C189.28 188.834 188.457 191.265 185.773 193.518C183.693 195.276 180.987 196.114 178.277 195.841C175.598 195.612 173.129 194.3 171.439 192.208C168.786 188.934 169.131 185.606 169.506 181.728C167.293 177.429 164.425 173.002 161.904 168.828L151.398 151.275C148.533 146.556 145.654 142.094 143.326 137.068C141.394 132.896 144.787 130.789 148.359 129.54Z"/></svg>