<?xml version="1.0" encoding="utf-8" ?><svg xmlns="http://www.w3.org/2000/svg" xmlns:xlink="http://www.w3.org/1999/xlink" width="1280" height="360" viewBox="0 0 1280 360"><path d="M186.836 86.5088C198.159 80.1997 209.495 75.4746 221.808 71.3997C222.977 71.0132 222.351 65.3883 222.743 63.5368C224.328 56.0523 225.472 45.6161 231.033 39.932C238.07 36.9614 259.531 38.3587 267.439 39.1255C270.142 49.4918 273.01 61.8342 276.134 71.9163C280.388 73.05 299.744 78.0326 301.629 80.9175C300.936 86.4568 292.707 99.3524 288.194 103.113C286.669 103.627 270.745 97.2371 267.142 96.5145C226.924 88.4859 186.302 108.336 167.922 144.998C164.532 151.821 161.29 160.702 159.904 168.131C158.155 177.51 161.403 187.132 160.405 196.474C160.299 197.46 160.986 198.648 161.762 199.236L161.855 199.37C164.891 203.79 168.196 213.759 171.517 219.094C190.056 248.874 210.263 261.271 243.945 268.032C246.783 268.84 249.653 268.513 252.573 268.535C269.002 268.66 280.818 261.401 294.916 253.961C297.294 252.706 308.263 246.2 309.778 244.65C322.854 231.27 332.482 209.155 338.199 191.623C340.602 184.254 338.729 171.533 337.089 164.234C344.895 161.604 352.745 159.106 360.634 156.74C366.4 160.082 387.628 164.685 395.405 166.698C396.324 179.289 396.58 185.101 395.436 197.758C384.286 200.87 373.322 203.425 362.228 206.404C358.071 218.625 355.237 227.67 348.422 238.769C351.319 243.982 365.732 265.654 365.646 269.4C363.294 274.533 345.186 290.803 340.06 294.896C331.229 290.89 318.269 282.66 310.673 276.737C297.314 284.721 290.713 287.235 275.559 291.509C273.104 301.689 269.744 314.178 267.868 324.296C256.385 325.034 241.676 325.974 230.368 324.159C229.095 318.487 223.897 309.179 222.949 302.004C222.478 298.439 223.522 293.819 221.779 291.586C218.265 289.616 213.697 290.231 210.645 289.344C205.894 287.962 198.869 284.815 194.359 282.633C192.167 281.573 189.786 277.963 187.626 277.473C181.721 281.163 165.978 289.964 159.781 295.228C159.781 295.228 157.975 295.33 157.726 295.344C152.383 295.953 132.515 273.754 128.46 268.538C129.821 265.159 142.847 245.23 146.256 239.267C140.949 230.438 134.725 216.865 131.355 207.372C120.98 204.261 109.595 202.443 98.9176 199.332C97.9775 189.239 98.7383 175.764 99.6777 165.592C106.698 163.87 126.431 158.771 132.601 156.406C136.959 143.315 139.127 135.408 147.11 123.961C142.548 117.325 131.306 100.822 128.589 93.9439C131.369 90.9292 138.895 81.8935 142.837 82.0099C147.645 77.5359 152.521 72.8738 157.577 68.7038C164.078 71.7077 180.504 82.1577 186.836 86.5088Z"/><path fill="#FAF8F9" d="M128.589 93.9439C131.369 90.9292 138.895 81.8935 142.837 82.0099C139.293 86.3822 135.503 90.4605 131.71 94.6121C137.095 103.672 145.183 115.509 149.76 124.211C143.883 134.994 138.3 146.285 135.734 158.398C126.134 160.832 112.087 164.882 102.725 166.67C101.89 178.568 101.42 185.87 102.597 197.89C113.554 201.143 125.235 203.421 135.749 206.583C139.005 217.882 143.608 229.059 149.861 239.055L131.799 268.513C136.38 273.963 139.432 277.341 144.473 282.267C146.733 284.476 156.588 293.54 157.726 295.344C152.383 295.953 132.515 273.754 128.46 268.538C129.821 265.159 142.847 245.23 146.256 239.267C140.949 230.438 134.725 216.865 131.355 207.372C120.98 204.261 109.595 202.443 98.9176 199.332C97.9775 189.239 98.7383 175.764 99.6777 165.592C106.698 163.87 126.431 158.771 132.601 156.406C136.959 143.315 139.127 135.408 147.11 123.961C142.548 117.325 131.306 100.822 128.589 93.9439Z"/><path fill="#FAF8F9" d="M161.762 199.236L161.855 199.37C164.891 203.79 168.196 213.759 171.517 219.094C190.056 248.874 210.263 261.271 243.945 268.032C238.811 268.112 234.511 267.507 229.532 266.397C205.562 260.977 184.772 246.159 171.829 225.268C168.636 220.219 160.438 205.101 161.762 199.236Z"/><path d="M940.934 151.049C944.953 150.927 949.386 150.691 953.373 150.871L955.408 160.341C958.011 161.421 960.64 162.54 963.253 163.584C965.902 161.835 968.784 159.837 971.456 158.184C974.85 161.339 977.342 163.803 980.462 167.227C972.666 178.635 975.185 178.843 987.486 182.35L987.447 193.77L978.616 195.584L975.018 204.456L980.589 212.816C977.562 216.609 974.65 219.415 971.209 222.826C968.105 220.626 966.46 219.468 963.7 216.759L955.309 220.752C954.676 223.708 954.04 227.086 953.311 229.981L941.165 230.061L938.866 220.285L930.893 216.805C928.429 218.449 925.6 220.214 923.465 222.221C920.02 219.057 917.032 216.092 914.162 212.37C915.878 209.465 917.511 206.7 919.376 203.877C918.221 201.046 917.093 198.204 915.99 195.353L906.861 193.393C906.816 189.787 906.541 185.36 907.469 181.944C911.241 180.265 914.328 177.815 917.303 181.236C917.77 178.895 918.627 177.57 919.767 175.494L914.102 167.568C917.334 163.779 919.345 161.567 923.201 158.354C926.314 160.174 928.355 161.44 931.289 163.566C933.698 162.549 936.556 161.252 939.021 160.535C939.603 157.335 940.144 154.211 940.934 151.049ZM950.504 206.702C974.727 197.605 966.199 171.204 943.742 173.315C938.581 174.864 933.935 177.758 931.344 182.644C929.34 186.346 928.945 190.709 930.251 194.71C931.696 199.16 934.877 202.838 939.073 204.91C943.206 206.982 946.016 207.029 950.504 206.702Z"/><path fill="#3A3838" d="M907.469 181.944C911.241 180.265 914.328 177.815 917.303 181.236C914.969 185.041 913.117 185.403 908.94 183.863L907.469 181.944Z"/><path d="M602.357 150.951C605.425 150.798 608.781 150.879 611.875 150.893L614.156 160.643L622.302 163.415C624.581 161.629 627.201 159.921 629.612 158.284C633.569 161.16 636.033 163.457 638.771 167.505C636.256 170.878 633.251 173.517 635.184 177.683C638.04 180.087 642.362 180.648 646.112 181.523C646.264 184.763 646.106 188.847 646.07 192.152L636.927 193.682L633.579 202.122C635.245 204.294 637.264 207.78 638.754 210.187C636.266 213.432 632.66 216.687 629.677 219.557L621.448 213.303L614.168 216.726C613.192 222.039 613.72 226.614 607.656 226.954L599.368 226.927L597.205 216.922L589.438 213.505C587.336 215.471 584.145 217.757 581.791 219.547C578.155 216.249 575.61 213.731 572.277 210.127C573.854 207.585 576.048 204.594 577.781 202.089L574.587 194.69L565.358 193.176L565.53 181.619C569.45 181.635 571.877 180.685 575.553 179.513L577.777 175.477C575.938 173.009 574.127 170.007 572.461 167.381C575.796 163.458 577.583 161.619 581.442 158.221C583.747 159.456 587.052 161.927 589.282 163.494C591.77 162.53 594.669 161.591 597.217 160.695C597.908 156.112 597.344 151.636 602.357 150.951ZM608.041 204.508C632.448 197.892 624.927 171.242 603.524 172.646C579.385 178.064 585.632 205.677 608.041 204.508Z"/><path fill="#BC7742" d="M339.876 67.3893C345.67 67.3462 364.739 89.3235 368.768 94.2345C362.867 104.227 355.325 113.981 350.45 124.636C355.212 130.925 358.093 139.03 360.477 146.441C353.291 148.833 340.918 153.212 333.859 154.7C319.58 131.707 317.659 125.348 294.29 108.171C297.898 100.509 303.042 92.8429 307.229 85.3055C317.889 82.5457 329.1 72.248 339.876 67.3893Z"/><path d="M891.265 160.215C896.078 159.954 902.019 160.093 906.92 160.083C905.036 166.815 898.184 180.731 894.916 187.747C890.211 198.802 885.639 210.158 881.06 221.279C877.64 221.469 874.086 221.569 870.653 221.709C864.455 207.95 856.988 191.489 851.1 177.669C844.874 187.81 836.469 209.931 831.917 221.299L821.705 221.316C817.176 211.957 813.45 200.998 809.185 191.293C804.8 181.313 798.688 170.196 795.108 160.14C800.328 160.045 805.678 160.086 810.911 160.067C816.336 173.482 819.007 178.526 826.627 190.82C833.367 184.287 839.381 169.167 843.426 160.255C848.211 160.006 853.964 160.109 858.825 160.072C861.02 165.451 875.408 192.248 875.635 193.862C875.643 193.92 875.65 193.978 875.657 194.035L876.144 194.11C877.138 190.937 881.212 183.205 882.85 179.803C885.95 173.404 888.758 166.868 891.265 160.215Z"/><path d="M456.628 143.836C464.074 143.237 474.296 143.498 481.88 143.503C495.464 143.484 509.049 143.538 522.632 143.666C522.853 147.848 522.593 153.799 522.521 158.112C502.649 158.091 476.911 157.322 457.508 158.32C457.013 172.592 457.329 189.416 457.513 203.676C466.804 204.042 477.036 203.866 486.406 203.871L522.531 203.817C522.607 208.508 522.512 213.449 522.497 218.162C508.041 218.037 493.524 218.289 479.08 218.228C473.195 218.203 461.233 218.613 456.081 217.579C452.978 216.978 450.116 215.491 447.838 213.3C441.575 207.269 442.453 199.866 442.531 191.883C442.65 179.599 442.764 167.344 442.581 155.059C446.428 148.717 449.537 145.737 456.628 143.836Z"/><path d="M1176.78 192.56C1159.66 192.039 1114.06 199.302 1128.44 166.813C1133.12 156.236 1167.29 160.432 1176.99 160.197C1183.91 160.029 1195.23 170.893 1190.63 177.462L1187.66 177.776C1185.12 177.809 1183.04 177.79 1180.52 178.185C1177.64 176.926 1177.47 177.002 1176.12 173.539L1175.96 173.112C1171.39 173.05 1143.02 172.074 1140.79 174.015C1140.38 176.123 1140.4 176.696 1140.53 178.822C1152.5 178.851 1164.22 179.426 1176.26 178.403C1177.29 178.315 1178.79 178.575 1179.71 179.117L1180.8 179.601C1185.41 181.608 1189.97 185.989 1190.95 191.04C1195.41 214.039 1182.75 219.512 1162.33 218.063C1151.42 217.38 1136.51 221.435 1129.05 211.119C1126.67 207.832 1123.78 204.481 1126.65 200.645C1135.2 196.189 1141.11 203.379 1142.59 203.511C1153.12 204.45 1165.81 203.926 1176.47 203.673C1176.91 200.037 1176.8 196.231 1176.78 192.56Z"/><path fill="#3A3838" d="M1140.53 178.822C1152.5 178.851 1164.22 179.426 1176.26 178.403C1177.29 178.315 1178.79 178.575 1179.71 179.117C1173.01 185.339 1153.51 182.111 1144.07 183.298C1142.05 182.353 1141.52 180.787 1140.53 178.822Z"/><path fill="#242223" d="M1179.71 179.117L1180.8 179.601C1180.58 181.585 1180.42 182.164 1181.34 183.883L1183.34 184.707C1183.71 184.577 1145.63 183.643 1144.07 183.298C1153.51 182.111 1173.01 185.339 1179.71 179.117Z"/><path d="M1053.83 138.744L1068.2 138.74C1068.75 152.015 1068.55 166.305 1068.57 179.661C1073.67 179.452 1078.74 179.519 1083.84 179.545C1088.98 175.235 1097.61 165.277 1102.35 160.074C1106.35 160.021 1113.89 159.705 1117.49 160.593C1120.58 164.853 1099.01 184.141 1095.12 187.271C1099.57 193.186 1109 202.699 1114.4 208.411C1116.85 210.892 1119.02 212.877 1118.17 216.505C1115.24 219.232 1107.65 218.216 1103.53 218.073C1097.67 212.67 1086.16 199.123 1080.3 192.541L1068.57 192.54C1068.25 202.023 1068.73 210.808 1068.08 220.571C1063.72 220.547 1058.29 220.303 1054.09 221.154C1052.9 195.691 1053.75 164.69 1053.83 138.744Z"/><path d="M726.475 138.806L740.944 138.749C741.494 151.883 741.124 167.64 741.164 180.977C745.496 181.182 751.802 179.911 756.144 179.094C761.072 175.244 770.235 165.105 774.91 160.126C778.92 160.047 786.511 159.692 790.136 160.358L790.656 161.285C790.237 166.63 772.198 183.5 767.562 187.521C771.364 192.888 780.093 201.827 784.795 206.913C787.51 209.76 791.577 212.992 789.922 217.135C786.503 219.728 780.184 218.705 775.68 218.525C768.168 210.253 759.611 201.19 752.589 192.631L740.894 192.597C740.942 200.199 741.309 211.549 740.595 218.754C735.728 218.847 731.207 218.931 726.352 219.311C726.334 192.694 726 165.367 726.475 138.806Z"/><path d="M666.269 160.209C680.26 159.325 701.857 159.994 716.299 159.992L716.256 174.241C700.177 174.25 682.933 173.885 666.968 174.396C666.903 184.118 666.712 194.049 667.107 203.75C673.337 204.588 688.228 204.227 695.212 204.225L716.248 204.242L716.293 218.159C705.933 218.128 667.517 220.161 660.586 216.16C656.678 213.905 654.043 209.935 652.939 205.608C650.818 197.303 650.815 174.977 655.186 167.761C657.864 163.341 661.351 161.397 666.269 160.209Z"/><path d="M218.562 129.032L220.213 129.011C227.62 131.761 246.422 178.314 253.875 176.183C262.341 173.763 306.159 140.665 312.753 140.833C316.613 142.019 318.229 146.537 314.77 149.003C311.607 151.258 308.295 153.391 305.05 155.534L260.036 184.523C257.818 193.625 249.955 198.523 241.578 193.214C241.276 193.023 240.981 192.821 240.693 192.61C240.409 192.4 240.132 192.181 239.862 191.953C233.917 186.913 238.844 181.328 238.327 180.668C229.298 169.145 222.392 156.139 214.819 143.635C212.664 140.077 208.947 135.05 211.561 131.131C213.472 129.509 216.022 129.418 218.562 129.032Z"/><path d="M1009.99 160.234C1021.28 159.82 1034.34 160.056 1045.69 160.218C1045.84 164.608 1045.66 169.825 1045.6 174.28L1010.05 174.42L1009.9 201.406C1009.95 207.442 1010.3 215.067 1009.04 220.803C1004.91 220.66 999.366 220.388 995.41 221.178C994.901 209.43 995.265 197.578 995.025 185.842C994.775 173.642 995.634 162.53 1009.99 160.234Z"/><path d="M534.434 138.831L549.362 138.727C549.736 160.021 549.359 182.051 549.476 203.47C553.124 203.83 559.22 203.756 563.066 203.813L563.025 218.087C544.999 218.375 534.081 218.161 534.279 195.592C534.322 190.76 534.302 185.368 534.316 180.481L534.434 138.831Z"/></svg>